<?xml version="1.0" encoding="iso-8859-1"?>
<!-- Generator: Adobe Illustrator 19.0.0, SVG Export Plug-In . SVG Version: 6.00 Build 0)  -->
<svg xmlns="http://www.w3.org/2000/svg" xmlns:xlink="http://www.w3.org/1999/xlink" version="1.1" id="Capa_1" x="0px" y="0px" viewBox="0 0 512 512" style="enable-background:new 0 0 512 512;" xml:space="preserve" width="512px" height="512px">
<g>
	<g>
		<path d="M414.329,238.715l-57.771-70.937c-3.74-4.593-9.283-7.227-15.206-7.227c-5.033,0-166.705,0-170.704,0    c-5.923,0-11.467,2.634-15.207,7.227l-57.771,70.936c-2.256,2.769-2.224,6.914,0.148,9.65l147.849,170.552    c5.467,6.307,15.265,6.233,20.666,0.001l147.849-170.552C416.521,245.667,416.613,241.519,414.329,238.715z M288.675,175.553    l20.541,60.4H202.783l20.541-60.4H288.675z M167.073,177.252c0.879-1.08,2.183-1.699,3.575-1.699h36.831l-20.541,60.4h-67.671    L167.073,177.252z M119.914,250.952h67.135l48.137,132.973L119.914,250.952z M256,397.353l-52.997-146.401h105.995L256,397.353z     M276.814,383.925l48.137-132.973h67.134L276.814,383.925z M325.062,235.951l-20.542-60.4h36.833    c1.392,0.001,2.695,0.62,3.574,1.7l47.806,58.7H325.062z" fill="#FFFFFF"/>
	</g>
</g>
<g>
	<g>
		<path d="M504.5,266c-4.143,0-7.5,3.358-7.5,7.5v189.942c0,1.141-0.928,2.069-2.068,2.069h-221.43c-4.143,0-7.5,3.358-7.5,7.5    c0,4.142,3.357,7.5,7.5,7.5H494.93c9.412,0,17.069-7.657,17.069-17.07V273.501C512,269.358,508.642,266,504.5,266z" fill="#FFFFFF"/>
	</g>
</g>
<g>
	<g>
		<path d="M511.911,46.815c-0.876-8.596-8.158-15.327-16.981-15.327H17.069c-8.824,0-16.105,6.73-16.981,15.327    C0.03,47.388,0,47.969,0,48.558v414.884c0,9.413,7.657,17.07,17.069,17.07h221.429c4.143,0,7.5-3.358,7.5-7.5    c0-4.142-3.357-7.5-7.5-7.5H17.069c-1.141,0-2.068-0.928-2.068-2.069V111.084h481.998v127.415c0,4.142,3.357,7.5,7.5,7.5    c4.143,0,7.5-3.358,7.5-7.5V48.558C512,47.969,511.97,47.388,511.911,46.815z M66.95,96.084H15.001v-0.001V48.558    c0-0.143,0.015-0.282,0.042-0.416c0.193-0.942,1.028-1.652,2.026-1.652H66.95V96.084z M496.998,96.082H81.951V46.489H494.93    c0.998,0,1.833,0.71,2.026,1.652c0.028,0.135,0.042,0.274,0.042,0.416V96.082z" fill="#FFFFFF"/>
	</g>
</g>
<g>
</g>
<g>
</g>
<g>
</g>
<g>
</g>
<g>
</g>
<g>
</g>
<g>
</g>
<g>
</g>
<g>
</g>
<g>
</g>
<g>
</g>
<g>
</g>
<g>
</g>
<g>
</g>
<g>
</g>
</svg>
