<?xml version="1.0" encoding="iso-8859-1"?>
<!-- Generator: Adobe Illustrator 19.0.0, SVG Export Plug-In . SVG Version: 6.00 Build 0)  -->
<svg xmlns="http://www.w3.org/2000/svg" xmlns:xlink="http://www.w3.org/1999/xlink" version="1.1" id="Capa_1" x="0px" y="0px" viewBox="0 0 511.999 511.999" style="enable-background:new 0 0 511.999 511.999;" xml:space="preserve" width="512px" height="512px">
<g>
	<g>
		<path d="M242.767,385h-3.649c-4.143,0-7.5,3.358-7.5,7.5c0,4.142,3.357,7.5,7.5,7.5h3.649c4.143,0,7.5-3.358,7.5-7.5    C250.268,388.359,246.91,385,242.767,385z" fill="#FFFFFF"/>
	</g>
</g>
<g>
	<g>
		<path d="M284.456,249.319h-28.457c-4.143,0-7.5,3.358-7.5,7.5s3.357,7.5,7.5,7.5h28.457c4.143,0,7.5-3.358,7.5-7.5    C291.956,252.677,288.598,249.319,284.456,249.319z" fill="#FFFFFF"/>
	</g>
</g>
<g>
	<g>
		<path d="M284.456,276.506h-28.457c-4.143,0-7.5,3.358-7.5,7.5c0,4.142,3.357,7.5,7.5,7.5h28.457c4.143,0,7.5-3.358,7.5-7.5    C291.956,279.864,288.598,276.506,284.456,276.506z" fill="#FFFFFF"/>
	</g>
</g>
<g>
	<g>
		<path d="M351.433,249.319h-28.457c-4.143,0-7.5,3.358-7.5,7.5s3.357,7.5,7.5,7.5h28.457c4.143,0,7.5-3.358,7.5-7.5    C358.933,252.677,355.576,249.319,351.433,249.319z" fill="#FFFFFF"/>
	</g>
</g>
<g>
	<g>
		<path d="M351.433,276.506h-28.457c-4.143,0-7.5,3.358-7.5,7.5c0,4.142,3.357,7.5,7.5,7.5h28.457c4.143,0,7.5-3.358,7.5-7.5    C358.933,279.864,355.576,276.506,351.433,276.506z" fill="#FFFFFF"/>
	</g>
</g>
<g>
	<g>
		<path d="M418.411,249.319h-28.457c-4.143,0-7.5,3.358-7.5,7.5s3.357,7.5,7.5,7.5h28.457c4.143,0,7.5-3.358,7.5-7.5    C425.911,252.677,422.553,249.319,418.411,249.319z" fill="#FFFFFF"/>
	</g>
</g>
<g>
	<g>
		<path d="M418.411,276.506h-28.457c-4.143,0-7.5,3.358-7.5,7.5c0,4.142,3.357,7.5,7.5,7.5h28.457c4.143,0,7.5-3.358,7.5-7.5    C425.911,279.864,422.553,276.506,418.411,276.506z" fill="#FFFFFF"/>
	</g>
</g>
<g>
	<g>
		<path d="M270.227,186.726c-13.721,0-24.882,11.163-24.882,24.883c0,13.72,11.162,24.881,24.882,24.881    c13.721,0,24.883-11.162,24.883-24.881S283.948,186.726,270.227,186.726z M270.227,221.489c-5.448,0-9.882-4.432-9.882-9.881    c0-5.448,4.433-9.882,9.882-9.882c5.448,0,9.882,4.433,9.882,9.882C280.108,217.057,275.675,221.489,270.227,221.489z" fill="#FFFFFF"/>
	</g>
</g>
<g>
	<g>
		<path d="M337.205,186.726c-13.721,0-24.883,11.163-24.883,24.883c0,13.72,11.162,24.881,24.883,24.881    s24.883-11.162,24.883-24.881S350.925,186.726,337.205,186.726z M337.205,221.489c-5.448,0-9.882-4.432-9.882-9.881    c0-5.448,4.433-9.882,9.882-9.882s9.882,4.433,9.882,9.882C347.086,217.057,342.653,221.489,337.205,221.489z" fill="#FFFFFF"/>
	</g>
</g>
<g>
	<g>
		<path d="M404.182,186.726c-13.721,0-24.883,11.163-24.883,24.883c0,13.72,11.162,24.881,24.883,24.881    c13.721,0,24.883-11.162,24.883-24.881S417.903,186.726,404.182,186.726z M404.182,221.489c-5.448,0-9.882-4.432-9.882-9.881    c0-5.448,4.433-9.882,9.882-9.882c5.448,0,9.882,4.433,9.882,9.882C414.064,217.057,409.63,221.489,404.182,221.489z" fill="#FFFFFF"/>
	</g>
</g>
<g>
	<g>
		<path d="M461.767,0H353.246c-4.143,0-7.5,3.358-7.5,7.5c0,4.142,3.357,7.5,7.5,7.5H456.35v43.575H215.14V15.001h103.104    c4.143,0,7.5-3.358,7.5-7.5c0-4.142-3.357-7.5-7.5-7.5H209.721c-5.283,0-9.583,4.298-9.583,9.583c0,4.135,0,78.581,0,80.838    H62.032c-11.79,0-21.382,9.592-21.382,21.381c0,11.482,0,285.594,0,299.972c0,11.053,8.43,20.173,19.199,21.27    c0.718,0.073,1.446,0.111,2.183,0.111h131.536v32.456h-18.686c-10.577,0-19.181,8.605-19.181,19.179v8.029    c0,10.576,8.605,19.179,19.181,19.179h47.744c4.143,0,7.5-3.358,7.5-7.5s-3.357-7.5-7.5-7.5h-47.744    c-2.305,0-4.18-1.875-4.18-4.178v-8.029c0-2.304,1.875-4.178,4.18-4.178c12.071,0,113.767,0,128.47,0    c2.304,0,4.179,1.875,4.179,4.178v8.029c0,2.304-1.875,4.178-4.179,4.178h-45.724c-4.143,0-7.5,3.358-7.5,7.5s3.357,7.5,7.5,7.5    h45.724c10.576,0,19.18-8.604,19.18-19.179v-8.029c0-10.576-8.605-19.179-19.18-19.179h-18.687v-32.456h135.186h0.001    c11.79,0,21.381-9.592,21.381-21.381c0-3.535,0-76.775,0-80.163h20.533c5.283,0,9.583-4.298,9.583-9.583    c0-5.436,0-310.101,0-312.446C471.35,4.298,467.051,0,461.767,0z M421.274,73.576l-85.529,31.099l-85.529-31.099H421.274z     M421.274,151.735H250.215l85.53-31.099L421.274,151.735z M215.14,76.784l98.657,35.872l-98.657,35.872    C215.14,141.419,215.14,85.375,215.14,76.784z M209.721,331.613h0.198h187.782v20.232H84.183V168.927    c10.774,0,102.529,0,115.956,0v152.905v0.198C200.139,327.315,204.438,331.613,209.721,331.613z M84.183,153.925v-17.488    c0-0.399,0.324-0.723,0.723-0.723h20.797v18.211h-0.001H84.183z M120.703,153.925v-18.211h79.436v18.211H120.703z M55.651,111.802    c0-3.518,2.863-6.38,6.381-6.38h138.106v15.292c-54.308,0-59.767,0-115.234,0c-8.671,0-15.724,7.053-15.724,15.724    c0,13.896,0,209.121,0,215.409h-13.53V111.802z M269.665,465.611h-61.096v-32.456h61.096V465.611z M426.234,411.774    c0,3.518-2.862,6.38-6.381,6.38c-5.534,0-352.25,0-357.821,0c-0.22,0-0.437-0.011-0.651-0.033    c-3.214-0.327-5.729-3.049-5.729-6.347v-44.928c4.572,0,366.012,0,370.582,0V411.774z M412.703,351.845v-20.234h13.53v20.234    H412.703z M456.349,316.611c-9.183-0.001-231.554-0.001-241.21-0.001V166.737h241.21V316.611z M456.349,148.528l-98.657-35.872    l98.657-35.872V148.528z" fill="#FFFFFF"/>
	</g>
</g>
<g>
</g>
<g>
</g>
<g>
</g>
<g>
</g>
<g>
</g>
<g>
</g>
<g>
</g>
<g>
</g>
<g>
</g>
<g>
</g>
<g>
</g>
<g>
</g>
<g>
</g>
<g>
</g>
<g>
</g>
</svg>
