<?xml version="1.0" encoding="iso-8859-1"?>
<!-- Generator: Adobe Illustrator 19.0.0, SVG Export Plug-In . SVG Version: 6.00 Build 0)  -->
<svg xmlns="http://www.w3.org/2000/svg" xmlns:xlink="http://www.w3.org/1999/xlink" version="1.1" id="Capa_1" x="0px" y="0px" viewBox="0 0 512 512" style="enable-background:new 0 0 512 512;" xml:space="preserve" width="512px" height="512px">
<g>
	<g>
		<path d="M496.634,0H446.16c-8.474,0-15.366,6.893-15.366,15.367V65.84c0,8.474,6.893,15.367,15.366,15.367h50.474    c8.474,0,15.366-6.893,15.366-15.367V15.367C512,6.893,505.107,0,496.634,0z M496.999,65.84c0,0.185-0.181,0.366-0.365,0.366    H446.16c-0.185,0-0.365-0.181-0.365-0.366V15.367c0-0.185,0.181-0.366,0.365-0.366h50.474c0.185,0,0.365,0.181,0.365,0.366V65.84z    " fill="#FFFFFF"/>
	</g>
</g>
<g>
	<g>
		<path d="M65.84,0H15.366C6.893,0,0,6.893,0,15.367V65.84c0,8.474,6.893,15.367,15.366,15.367H65.84    c8.474,0,15.366-6.893,15.366-15.367V15.367C81.206,6.893,74.313,0,65.84,0z M66.205,65.84c0,0.185-0.181,0.366-0.365,0.366    H15.366c-0.185,0-0.365-0.181-0.365-0.366V15.367c0-0.185,0.181-0.366,0.365-0.366H65.84c0.185,0,0.365,0.181,0.365,0.366V65.84z" fill="#FFFFFF"/>
	</g>
</g>
<g>
	<g>
		<path d="M496.634,430.793H446.16c-8.474,0-15.366,6.893-15.366,15.367v50.473c0,8.474,6.893,15.367,15.366,15.367h50.474    c8.474,0,15.366-6.893,15.366-15.367V446.16C512,437.687,505.107,430.793,496.634,430.793z M496.999,496.633    c0,0.185-0.181,0.366-0.365,0.366H446.16c-0.185,0-0.365-0.181-0.365-0.366V446.16c0-0.185,0.181-0.366,0.365-0.366h50.474    c0.185,0,0.365,0.181,0.365,0.366V496.633z" fill="#FFFFFF"/>
	</g>
</g>
<g>
	<g>
		<path d="M65.84,430.793H15.366C6.893,430.793,0,437.687,0,446.16v50.473C0,505.107,6.893,512,15.366,512H65.84    c8.474,0,15.366-6.893,15.366-15.367V446.16C81.206,437.687,74.313,430.793,65.84,430.793z M66.205,496.633    c0,0.185-0.181,0.366-0.365,0.366H15.366c-0.185,0-0.365-0.181-0.365-0.366V446.16c0-0.185,0.181-0.366,0.365-0.366H65.84    c0.185,0,0.365,0.181,0.365,0.366V496.633z" fill="#FFFFFF"/>
	</g>
</g>
<g>
	<g>
		<path d="M471.397,368.048c-4.143,0-7.5,3.358-7.5,7.5v7.086c0,4.142,3.357,7.5,7.5,7.5s7.5-3.358,7.5-7.5v-7.086    C478.897,371.406,475.54,368.048,471.397,368.048z" fill="#FFFFFF"/>
	</g>
</g>
<g>
	<g>
		<path d="M471.397,155.444c-4.143,0-7.5,3.358-7.5,7.5v7.086c0,4.142,3.357,7.5,7.5,7.5s7.5-3.358,7.5-7.5v-7.086    C478.897,158.803,475.54,155.444,471.397,155.444z" fill="#FFFFFF"/>
	</g>
</g>
<g>
	<g>
		<path d="M471.397,240.486c-4.143,0-7.5,3.358-7.5,7.5v7.086c0,4.142,3.357,7.5,7.5,7.5s7.5-3.358,7.5-7.5v-7.086    C478.897,243.844,475.54,240.486,471.397,240.486z" fill="#FFFFFF"/>
	</g>
</g>
<g>
	<g>
		<path d="M471.397,325.528c-4.143,0-7.5,3.358-7.5,7.5v7.086c0,4.142,3.357,7.5,7.5,7.5s7.5-3.358,7.5-7.5v-7.086    C478.897,328.886,475.54,325.528,471.397,325.528z" fill="#FFFFFF"/>
	</g>
</g>
<g>
	<g>
		<path d="M471.397,197.965c-4.143,0-7.5,3.358-7.5,7.5v7.086c0,4.142,3.357,7.5,7.5,7.5s7.5-3.358,7.5-7.5v-7.086    C478.897,201.323,475.54,197.965,471.397,197.965z" fill="#FFFFFF"/>
	</g>
</g>
<g>
	<g>
		<path d="M471.397,283.006c-4.143,0-7.5,3.358-7.5,7.5v7.086c0,4.142,3.357,7.5,7.5,7.5s7.5-3.358,7.5-7.5v-7.086    C478.897,286.364,475.54,283.006,471.397,283.006z" fill="#FFFFFF"/>
	</g>
</g>
<g>
	<g>
		<path d="M471.397,112.923c-4.143,0-7.5,3.358-7.5,7.5v7.086c0,4.142,3.358,7.5,7.5,7.5c4.143,0,7.5-3.358,7.5-7.5v-7.086    C478.897,116.281,475.54,112.923,471.397,112.923z" fill="#FFFFFF"/>
	</g>
</g>
<g>
	<g>
		<path d="M40.603,368.048c-4.143,0-7.5,3.358-7.5,7.5v7.086c0,4.142,3.357,7.5,7.5,7.5s7.5-3.358,7.5-7.5v-7.086    C48.104,371.406,44.747,368.048,40.603,368.048z" fill="#FFFFFF"/>
	</g>
</g>
<g>
	<g>
		<path d="M40.603,197.965c-4.143,0-7.5,3.358-7.5,7.5v7.086c0,4.142,3.357,7.5,7.5,7.5s7.5-3.358,7.5-7.5v-7.086    C48.104,201.323,44.747,197.965,40.603,197.965z" fill="#FFFFFF"/>
	</g>
</g>
<g>
	<g>
		<path d="M40.603,325.528c-4.143,0-7.5,3.358-7.5,7.5v7.086c0,4.142,3.357,7.5,7.5,7.5s7.5-3.358,7.5-7.5v-7.086    C48.104,328.886,44.747,325.528,40.603,325.528z" fill="#FFFFFF"/>
	</g>
</g>
<g>
	<g>
		<path d="M40.603,283.006c-4.143,0-7.5,3.358-7.5,7.5v7.086c0,4.142,3.357,7.5,7.5,7.5s7.5-3.358,7.5-7.5v-7.086    C48.104,286.364,44.747,283.006,40.603,283.006z" fill="#FFFFFF"/>
	</g>
</g>
<g>
	<g>
		<path d="M40.603,112.923c-4.143,0-7.5,3.358-7.5,7.5v7.086c0,4.142,3.357,7.5,7.5,7.5s7.5-3.358,7.5-7.5v-7.086    C48.104,116.281,44.747,112.923,40.603,112.923z" fill="#FFFFFF"/>
	</g>
</g>
<g>
	<g>
		<path d="M40.603,240.486c-4.143,0-7.5,3.358-7.5,7.5v7.086c0,4.142,3.357,7.5,7.5,7.5s7.5-3.358,7.5-7.5v-7.086    C48.104,243.844,44.747,240.486,40.603,240.486z" fill="#FFFFFF"/>
	</g>
</g>
<g>
	<g>
		<path d="M40.603,155.444c-4.143,0-7.5,3.358-7.5,7.5v7.086c0,4.142,3.357,7.5,7.5,7.5s7.5-3.358,7.5-7.5v-7.086    C48.104,158.803,44.747,155.444,40.603,155.444z" fill="#FFFFFF"/>
	</g>
</g>
<g>
	<g>
		<path d="M340.115,33.103h-7.086c-4.143,0-7.5,3.358-7.5,7.5s3.357,7.5,7.5,7.5h7.086c4.143,0,7.5-3.358,7.5-7.5    S344.258,33.103,340.115,33.103z" fill="#FFFFFF"/>
	</g>
</g>
<g>
	<g>
		<path d="M297.594,33.103h-7.087c-4.143,0-7.5,3.358-7.5,7.5s3.358,7.5,7.5,7.5h7.087c4.143,0,7.5-3.358,7.5-7.5    S301.737,33.103,297.594,33.103z" fill="#FFFFFF"/>
	</g>
</g>
<g>
	<g>
		<path d="M382.635,33.103h-7.086c-4.143,0-7.5,3.358-7.5,7.5s3.358,7.5,7.5,7.5h7.086c4.143,0,7.5-3.358,7.5-7.5    S386.778,33.103,382.635,33.103z" fill="#FFFFFF"/>
	</g>
</g>
<g>
	<g>
		<path d="M212.552,33.103h-7.086c-4.143,0-7.5,3.358-7.5,7.5s3.358,7.5,7.5,7.5h7.086c4.143,0,7.5-3.358,7.5-7.5    S216.695,33.103,212.552,33.103z" fill="#FFFFFF"/>
	</g>
</g>
<g>
	<g>
		<path d="M170.031,33.103h-7.086c-4.143,0-7.5,3.358-7.5,7.5s3.357,7.5,7.5,7.5h7.086c4.143,0,7.5-3.358,7.5-7.5    S174.175,33.103,170.031,33.103z" fill="#FFFFFF"/>
	</g>
</g>
<g>
	<g>
		<path d="M255.073,33.103h-7.087c-4.143,0-7.5,3.358-7.5,7.5s3.357,7.5,7.5,7.5h7.087c4.143,0,7.5-3.358,7.5-7.5    S259.217,33.103,255.073,33.103z" fill="#FFFFFF"/>
	</g>
</g>
<g>
	<g>
		<path d="M127.511,33.103h-7.087c-4.143,0-7.5,3.358-7.5,7.5s3.357,7.5,7.5,7.5h7.087c4.143,0,7.5-3.358,7.5-7.5    S131.654,33.103,127.511,33.103z" fill="#FFFFFF"/>
	</g>
</g>
<g>
	<g>
		<path d="M170.031,463.896h-7.086c-4.143,0-7.5,3.358-7.5,7.5c0,4.142,3.357,7.5,7.5,7.5h7.086c4.143,0,7.5-3.358,7.5-7.5    C177.532,467.254,174.174,463.896,170.031,463.896z" fill="#FFFFFF"/>
	</g>
</g>
<g>
	<g>
		<path d="M340.115,463.896h-7.086c-4.143,0-7.5,3.358-7.5,7.5c0,4.142,3.357,7.5,7.5,7.5h7.086c4.143,0,7.5-3.358,7.5-7.5    C347.615,467.254,344.257,463.896,340.115,463.896z" fill="#FFFFFF"/>
	</g>
</g>
<g>
	<g>
		<path d="M382.635,463.896h-7.086c-4.143,0-7.5,3.358-7.5,7.5c0,4.142,3.357,7.5,7.5,7.5h7.086c4.143,0,7.5-3.358,7.5-7.5    C390.136,467.254,386.778,463.896,382.635,463.896z" fill="#FFFFFF"/>
	</g>
</g>
<g>
	<g>
		<path d="M297.594,463.896h-7.087c-4.143,0-7.5,3.358-7.5,7.5c0,4.142,3.357,7.5,7.5,7.5h7.087c4.143,0,7.5-3.358,7.5-7.5    C305.094,467.254,301.737,463.896,297.594,463.896z" fill="#FFFFFF"/>
	</g>
</g>
<g>
	<g>
		<path d="M212.552,463.896h-7.086c-4.143,0-7.5,3.358-7.5,7.5c0,4.142,3.357,7.5,7.5,7.5h7.086c4.143,0,7.5-3.358,7.5-7.5    C220.052,467.254,216.695,463.896,212.552,463.896z" fill="#FFFFFF"/>
	</g>
</g>
<g>
	<g>
		<path d="M255.073,463.896h-7.087c-4.143,0-7.5,3.358-7.5,7.5c0,4.142,3.357,7.5,7.5,7.5h7.087c4.143,0,7.5-3.358,7.5-7.5    C262.574,467.254,259.216,463.896,255.073,463.896z" fill="#FFFFFF"/>
	</g>
</g>
<g>
	<g>
		<path d="M127.511,463.896h-7.087c-4.143,0-7.5,3.358-7.5,7.5c0,4.142,3.357,7.5,7.5,7.5h7.087c4.143,0,7.5-3.358,7.5-7.5    C135.011,467.254,131.654,463.896,127.511,463.896z" fill="#FFFFFF"/>
	</g>
</g>
<g>
	<g>
		<path d="M395.957,259.715c-4.143,0-7.5,3.358-7.5,7.5v125.863c0,0.16-0.13,0.29-0.29,0.29h-65.123v-34.356    c0-0.678-0.069-1.341-0.2-1.98c-0.919-4.48-4.893-7.86-9.642-7.86h-27.605V162.829h58.662v17.168c0,5.424,4.414,9.841,9.842,9.841    h34.356v42.375c0,4.142,3.357,7.5,7.5,7.5s7.5-3.358,7.5-7.5c0-11.838-0.001-105.935-0.001-118.741    c0.001-5.425-4.413-9.84-9.84-9.84H272.612c-4.143,0-7.5,3.358-7.5,7.5c0,4.142,3.357,7.5,7.5,7.5h115.844l0.001,56.205h-29.196    V157.67c0-5.426-4.414-9.841-9.841-9.841h-68.982c-5.426,0-9.842,4.415-9.842,9.841v196.662c0,0.678,0.069,1.341,0.2,1.98    c0.919,4.48,4.893,7.86,9.642,7.86h27.605v29.196H203.957v-29.196h27.605c4.748,0,8.722-3.38,9.641-7.86    c0.131-0.64,0.2-1.302,0.2-1.98V157.67c0-5.426-4.414-9.841-9.841-9.841H162.58c-5.426,0-9.841,4.414-9.841,9.841v17.168h-29.196    l-0.001-56.205H237.61c4.143,0,7.5-3.358,7.5-7.5c0-4.142-3.357-7.5-7.5-7.5H118.382c-5.426,0-9.841,4.415-9.841,9.841    c0,6.324,0,252.191,0,279.606c0,8.432,6.858,15.291,15.29,15.291h264.335c8.432,0,15.291-6.859,15.291-15.291V267.215    C403.457,263.073,400.1,259.715,395.957,259.715z M189.154,357.033c-0.131,0.64-0.2,1.302-0.2,1.98v34.356h-65.124    c-0.158-0.001-0.288-0.131-0.288-0.291V189.839h34.356c5.426,0,9.842-4.415,9.842-9.841V162.83h58.66v186.342h-27.605    C194.047,349.172,190.074,352.552,189.154,357.033z" fill="#FFFFFF"/>
	</g>
</g>
<g>
</g>
<g>
</g>
<g>
</g>
<g>
</g>
<g>
</g>
<g>
</g>
<g>
</g>
<g>
</g>
<g>
</g>
<g>
</g>
<g>
</g>
<g>
</g>
<g>
</g>
<g>
</g>
<g>
</g>
</svg>
