<?xml version="1.0" encoding="iso-8859-1"?>
<!-- Generator: Adobe Illustrator 19.0.0, SVG Export Plug-In . SVG Version: 6.00 Build 0)  -->
<svg xmlns="http://www.w3.org/2000/svg" xmlns:xlink="http://www.w3.org/1999/xlink" version="1.1" id="Capa_1" x="0px" y="0px" viewBox="0 0 512 512" style="enable-background:new 0 0 512 512;" xml:space="preserve" width="512px" height="512px">
<g>
	<g>
		<path d="M432.762,250.453h-58.165c0-10.162,0-101.683,0-111.993c6.919-5.614,12.474-13.434,15.385-23.757    c1.125-3.987-1.196-8.13-5.183-9.256c-3.986-1.122-8.13,1.195-9.255,5.183c-9.789,34.707-68.429,32.653-70.064-9.43    c-1.086-27.953,12.227-53.837,35.611-69.242c0.088-0.059,0.206-0.059,0.294,0.001c16.855,11.103,28.735,27.96,33.451,47.468    c0.973,4.025,5.029,6.499,9.053,5.527c4.026-0.974,6.501-5.026,5.528-9.054c-5.612-23.214-19.739-43.27-39.778-56.469    c-5.104-3.363-11.699-3.364-16.801,0c-27.809,18.318-43.64,49.105-42.348,82.351c0.607,15.646,7.105,28.202,17.389,36.581    c0,10.339,0,101.954,0,112.089H283.84V11.873C283.841,5.326,278.515,0,271.969,0h-65.72c-0.019,0-0.037,0-0.055,0    c-6.515,0.038-11.804,5.349-11.804,11.873v86.552l-19.278-40.886c-4.162-8.831-16.734-8.813-20.892-0.002c0,0,0,0.001,0,0.002    c-11.211,23.775-22.268,47.229-33.563,71.181c-0.48,1.017-0.716,2.169-0.716,3.198v118.535H79.238    c-13.176,0-23.895,10.72-23.895,23.896v20.353c0,13.177,10.72,23.896,23.895,23.896h7.096v23.73h-2.524    c-4.142,0-7.5,3.357-7.5,7.5c0,4.143,3.358,7.5,7.5,7.5h2.524v131.096c0,12.999,10.575,23.573,23.573,23.573h128.106    c4.142,0,7.5-3.357,7.5-7.5s-3.358-7.5-7.5-7.5H109.907c-4.727,0-8.573-3.846-8.573-8.573V357.331h309.33v131.096    c0,4.727-3.845,8.573-8.573,8.573H273.014c-4.142,0-7.5,3.357-7.5,7.5s3.358,7.5,7.5,7.5h129.077    c12.999,0,23.573-10.575,23.573-23.573V357.331h1.553c4.142,0,7.5-3.357,7.5-7.5c0-4.143-3.358-7.5-7.5-7.5h-1.553v-23.73h7.097    c13.176,0,23.896-10.72,23.896-23.896V274.35C456.657,261.173,445.937,250.453,432.762,250.453z M322.881,146.758    c11.764,4.182,24.952,4.182,36.715,0v29.375h-36.715V146.758z M359.597,191.134v59.32h-36.715v-59.32H359.597z M209.391,15.001    h59.45v35.09h-12.486c-4.142,0-7.5,3.357-7.5,7.5s3.358,7.5,7.5,7.5h12.486v35.09h-12.486c-4.142,0-7.5,3.357-7.5,7.5    s3.358,7.5,7.5,7.5h12.486v35.089h-12.486c-4.142,0-7.5,3.357-7.5,7.5c0,4.143,3.358,7.5,7.5,7.5h12.486v35.09h-12.486    c-4.142,0-7.5,3.357-7.5,7.5s3.358,7.5,7.5,7.5h12.486v35.09h-59.45C209.391,243.659,209.391,21.01,209.391,15.001z     M164.665,70.557l11.639,24.684h-23.277L164.665,70.557z M145.953,110.241h37.423l6.684,14.177c-6.187,0-44.606,0-50.793,0    L145.953,110.241z M194.39,139.418v111.035h-22.224V139.418H194.39z M134.941,139.418h22.224v111.035h-22.224V139.418z     M410.664,342.33L410.664,342.33h-309.33v-23.73h309.33V342.33z M441.656,294.703c0,4.904-3.99,8.896-8.895,8.896    c-19.262,0-338.982,0-353.524,0c-4.904,0-8.895-3.99-8.895-8.896V274.35c0-4.904,3.99-8.896,8.895-8.896    c8.408,0,349.839,0,353.524,0c4.904,0,8.895,3.99,8.895,8.896V294.703z" fill="#FFFFFF"/>
	</g>
</g>
<g>
</g>
<g>
</g>
<g>
</g>
<g>
</g>
<g>
</g>
<g>
</g>
<g>
</g>
<g>
</g>
<g>
</g>
<g>
</g>
<g>
</g>
<g>
</g>
<g>
</g>
<g>
</g>
<g>
</g>
</svg>
